<svg width="1584" height="396" viewBox="0 0 1584 396" fill="none" xmlns="http://www.w3.org/2000/svg">
  <rect width="1584" height="396" fill="#050510"/>
  <path d="M0 330C220 250 410 380 650 300C860 230 1040 260 1250 190C1400 140 1490 90 1584 120" stroke="url(#line1)" stroke-width="4" opacity="0.75"/>
  <path d="M0 360C260 290 430 390 710 330C940 280 1090 300 1320 230C1450 190 1520 150 1584 160" stroke="url(#line2)" stroke-width="2" opacity="0.55"/>
  <circle cx="1250" cy="198" r="82" stroke="url(#ring)" stroke-width="8"/>
  <path d="M1175 143L1223 253L1254 190L1285 253L1335 143H1295L1280 190L1254 132L1228 190L1213 143H1175Z" fill="url(#wgrad)"/>
  <text x="520" y="165" fill="url(#textgrad)" font-family="Arial, Helvetica, sans-serif" font-size="72" font-weight="800">WeizeRouter</text>
  <text x="525" y="220" fill="#E5E7EB" font-family="Arial, Helvetica, sans-serif" font-size="28" font-weight="600">AI API Gateway • Web Platform • QRIS Automation</text>
<text x="525" y="265" fill="#9CA3AF" font-family="Arial, Helvetica, sans-serif" font-size="20">Multi-model AI access with automated payment and instant API key activation</text>
  <rect x="1370" y="92" width="80" height="40" rx="20" stroke="#7C3AED" stroke-width="2"/>
  <text x="1410" y="119" text-anchor="middle" fill="#E5E7EB" font-family="Arial" font-size="20" font-weight="700">API</text>
  <rect x="1370" y="260" width="64" height="64" rx="12" stroke="#7C3AED" stroke-width="2"/>
  <path d="M1390 280H1404V294H1390V280ZM1410 280H1424V294H1410V280ZM1390 300H1404V314H1390V300ZM1410 300H1424V314H1410V300Z" fill="#A855F7"/>
  <defs>
    <linearGradient id="line1" x1="0" y1="330" x2="1584" y2="120" gradientUnits="userSpaceOnUse">
      <stop stop-color="#7C3AED"/>
      <stop offset="0.5" stop-color="#3B82F6"/>
      <stop offset="1" stop-color="#FBBF24"/>
    </linearGradient>
    <linearGradient id="line2" x1="0" y1="360" x2="1584" y2="160" gradientUnits="userSpaceOnUse">
      <stop stop-color="#3B82F6"/>
      <stop offset="1" stop-color="#A855F7"/>
    </linearGradient>
    <linearGradient id="ring" x1="1160" y1="120" x2="1340" y2="280" gradientUnits="userSpaceOnUse">
      <stop stop-color="#A855F7"/>
      <stop offset="0.6" stop-color="#3B82F6"/>
      <stop offset="1" stop-color="#FBBF24"/>
    </linearGradient>
    <linearGradient id="wgrad" x1="1175" y1="143" x2="1335" y2="253" gradientUnits="userSpaceOnUse">
      <stop stop-color="#C084FC"/>
      <stop offset="0.5" stop-color="#7C3AED"/>
      <stop offset="1" stop-color="#38BDF8"/>
    </linearGradient>
    <linearGradient id="textgrad" x1="520" y1="110" x2="990" y2="170" gradientUnits="userSpaceOnUse">
      <stop stop-color="#A855F7"/>
      <stop offset="0.55" stop-color="#FFFFFF"/>
      <stop offset="1" stop-color="#38BDF8"/>
    </linearGradient>
  </defs>
</svg>
